<?xml version="1.0" encoding="utf-8"?>
<!-- Generator: Adobe Illustrator 16.0.0, SVG Export Plug-In . SVG Version: 6.00 Build 0)  -->
<!DOCTYPE svg PUBLIC "-//W3C//DTD SVG 1.1//EN" "http://www.w3.org/Graphics/SVG/1.1/DTD/svg11.dtd">
<svg version="1.1" id="图层_1" xmlns="http://www.w3.org/2000/svg" xmlns:xlink="http://www.w3.org/1999/xlink" x="0px" y="0px"
	 width="93.25px" height="32px" viewBox="0 0 93.25 32" enable-background="new 0 0 93.25 32" xml:space="preserve">
<g id="guides">
</g>
<path fill="#FFFFFF" d="M76.536,6.493c0,0-2.248,0.212-2.673,0c-0.425-0.213-2.43-2.217-2.43-2.217l-3.646,0.061L67.485,3.85
	c0,0-17.011,0.061-17.192,0.061c-0.183,0-0.608,1.336-0.608,1.336l-2.916-0.182L46.222,4.64h-0.851l-0.85-0.486l-1.397,0.243V3.425
	V2.696l-0.668-0.243V0.083h-0.547l-0.425,2.491h-5.953v0.911L35.105,3.85h-2.491l-1.336,0.79l-6.44,0.364v0.912l-2.673,2.612v1.215
	h-0.911V9.257l-2.977-0.182V8.528H1.814l-0.547,0.79c0,0-0.851,3.402-0.851,3.584l2.065,6.987l2.552-0.123l0.851-0.242l0.06-0.85
	l3.342-3.707l1.701-0.243l1.944,0.972L14.39,16l6.257,3.402l-0.851,1.396l6.318,2.43l3.706-7.775l0.851,0.85l4.678,0.304
	l2.004-2.491l0.912,5.649l1.884,4.557l2.916,4.496l3.827,3.098l4.678-4.131l-0.972-1.336v-0.791l-0.973-1.031l-0.91-0.486
	l-2.917-4.982l-1.519-5.042l0.183-1.944l1.033-0.486l0.546,0.79l0.486,0.425l5.649-0.911l9.537-0.243l0.73,0.729l1.822-0.304
	l1.093-1.519l1.154,0.304h4.921V9.682l1.944,0.061l0.426,0.547h2.187l0.546,0.243l5.589-0.182l0.366,0.243l3.219-0.122V8.346V6.493
	H76.536z M4.427,18.309L3.637,16l1.033-1.215h2.369L4.427,18.309z M22.408,16.912h-0.485l-5.407-2.795v-1.033l0.79-0.607h2.673
	v-0.79h1.337l0.303-0.546h0.486v1.823l2.673,0.242L22.408,16.912z M34.376,14.785h-2.247l-0.547-2.065h4.557L34.376,14.785z"/>
</svg>
